<?xml version="1.0" standalone="no"?><!DOCTYPE svg PUBLIC "-//W3C//DTD SVG 1.1//EN" "http://www.w3.org/Graphics/SVG/1.1/DTD/svg11.dtd"><svg t="1676647508294" class="icon" viewBox="0 0 1024 1024" version="1.1" xmlns="http://www.w3.org/2000/svg" p-id="1315" xmlns:xlink="http://www.w3.org/1999/xlink" width="200" height="200"><path d="M862.3 978.6H142.7l90.1-73.2V121.2c0-45.4 36.8-82.2 82.2-82.2h547.4c45.4 0 82.2 36.8 82.2 82.2v775.3c-0.1 45.3-36.9 82.1-82.3 82.1z" fill="#FAFCFB" p-id="1316"></path><path d="M862.3 991.4H142.7c-5.4 0-10.2-3.4-12-8.5-1.8-5.1-0.2-10.8 4-14.2l85.4-69.4V121.2c0-52.3 42.6-94.9 94.9-94.9h547.4c52.3 0 94.9 42.6 94.9 94.9v775.3c0 52.3-42.6 94.9-95 94.9z m-683.7-25.5h683.8c38.3 0 69.4-31.2 69.4-69.4V121.2c0-38.3-31.2-69.4-69.4-69.4H315c-38.3 0-69.4 31.2-69.4 69.4v784.2c0 3.8-1.7 7.5-4.7 9.9l-62.3 50.6z" fill="#0F0F0F" p-id="1317"></path><path d="M420.5 281.9m-39 0a39 39 0 1 0 78 0 39 39 0 1 0-78 0Z" fill="#0F0F0F" p-id="1318"></path><path d="M737.3 281.9m-39 0a39 39 0 1 0 78 0 39 39 0 1 0-78 0Z" fill="#0F0F0F" p-id="1319"></path><path d="M669.7 364c0 50-40.9 90.8-90.8 90.8-50 0-90.8-40.9-90.8-90.8" fill="#FAFCFB" p-id="1320"></path><path d="M578.9 467.6c-57.1 0-103.6-46.5-103.6-103.6 0-7 5.7-12.7 12.7-12.7 7 0 12.7 5.7 12.7 12.7 0 43.1 35 78.1 78.1 78.1 43.1 0 78.1-35 78.1-78.1 0-7 5.7-12.7 12.7-12.7s12.7 5.7 12.7 12.7c0.2 57.2-46.3 103.6-103.4 103.6zM532.4 606H328.1c-7 0-12.7-5.7-12.7-12.7 0-7 5.7-12.7 12.7-12.7h204.2c7 0 12.7 5.7 12.7 12.7 0.1 6.9-5.6 12.7-12.6 12.7zM532.4 710.7H328.1c-7 0-12.7-5.7-12.7-12.7s5.7-12.7 12.7-12.7h204.2c7 0 12.7 5.7 12.7 12.7s-5.6 12.7-12.6 12.7zM532.4 815.4H328.1c-7 0-12.7-5.7-12.7-12.7 0-7 5.7-12.7 12.7-12.7h204.2c7 0 12.7 5.7 12.7 12.7 0.1 7-5.6 12.7-12.6 12.7zM834.7 815.4h-199c-7 0-12.7-5.7-12.7-12.7 0-7 5.7-12.7 12.7-12.7h199c7 0 12.7 5.7 12.7 12.7 0.1 7-5.6 12.7-12.7 12.7z" fill="#141414" p-id="1321"></path><path d="M798.8 737.3H671.7c-15.5 0-28-12.5-28-28v-92.7c0-15.5 12.5-28 28-28h127.2c15.5 0 28 12.5 28 28v92.7c0 15.5-12.6 28-28.1 28z" fill="#9DC6AF" p-id="1322"></path><path d="M799.4 750H671.1c-22.2 0-40.2-18-40.2-40.2V616c0-22.2 18-40.2 40.2-40.2h128.3c22.2 0 40.2 18 40.2 40.2v93.8c0 22.2-18 40.2-40.2 40.2zM671.1 601.3c-8.1 0-14.7 6.6-14.7 14.7v93.8c0 8.1 6.6 14.7 14.7 14.7h128.3c8.1 0 14.7-6.6 14.7-14.7V616c0-8.1-6.6-14.7-14.7-14.7H671.1z" fill="#191919" p-id="1323"></path><path d="M152.3 978.6h-5.7c-44.5 0-80.5-36-80.5-80.5V237c0-28.3 22.9-51.2 51.2-51.2h115.5v712.3c0 44.5-36.1 80.5-80.5 80.5z" fill="#9DC6AF" p-id="1324"></path><path d="M149.4 991.4c-53 0-96.1-43.1-96.1-96.1V238.8c0-36.2 29.5-65.7 65.7-65.7h126.4v722.2c0.1 53-43 96.1-96 96.1z m-30.3-792.9c-22.2 0-40.2 18.1-40.2 40.2v656.5c0 38.9 31.7 70.6 70.6 70.6s70.6-31.7 70.6-70.6V198.5h-101z" fill="#191919" p-id="1325"></path></svg>